# xmcd CD database file
#
# Track frame offsets:
#	150
#	18937
#	36187
#	51224
#	63824
#	77324
#	86024
#	103874
#	124724
#	139049
#	153299
#	168411
#	178611
#
# Disc length: 2511 seconds
#
# Revision: 7
# Processed by: cddbd v1.5.2PL0 Copyright (c) Steve Scherf et al.
# Submitted via: CDex 1.70beta2
#
DISCID=9a09cd0d
DTITLE=Sauglockenläutn - Do lacht de Sau
DYEAR=2007
DGENRE=misc
TTITLE0=Schnäppchenjäger
TTITLE1=Fleischabfoi
TTITLE2=Traurige Gstanzln
TTITLE3=Da Huaba
TTITLE4=Sehnsucht nach Rudelzhausen
TTITLE5=Kuckuckspolka
TTITLE6=Da Weg
TTITLE7=Das 21ste
TTITLE8=Vogelgripp
TTITLE9=Da Bär
TTITLE10=Das Wasser
TTITLE11=Guad NAcht
TTITLE12=Aus is und goor is
EXTD=YEAR: 2007
EXTT0=
EXTT1=
EXTT2=
EXTT3=
EXTT4=
EXTT5=
EXTT6=
EXTT7=
EXTT8=
EXTT9=
EXTT10=
EXTT11=
EXTT12=
PLAYORDER=
